# xmcd CD database file
#
# Track frame offsets:
#	150
#	19828
#	27057
#	46919
#
# Disc length: 886 seconds
#
# Revision: 1
# Processed by: cddbd v1.5.1PL0 Copyright (c) Steve Scherf et al.
# Submitted via: CDex 1.51
#
DISCID=24037404
DTITLE=nobodyknows+ - エル・ミラドール?展望台の唄?
DYEAR=2005
DGENRE=JPop
TTITLE0=エル・ミラドール～展望台の唄～
TTITLE1=Theme from nobodyknows+ pt.11
TTITLE2=the same time
TTITLE3=エル・ミラドール～展望台の唄～-instrumental-
EXTD=YEAR: 2005
EXTT0=
EXTT1=
EXTT2=
EXTT3=
PLAYORDER=
